<svg id="Слой_1" data-name="Слой 1" xmlns="http://www.w3.org/2000/svg" viewBox="0 0 1352 742.12"><defs><style>.cls-1{fill:#f54811;}.cls-1,.cls-10,.cls-11,.cls-2,.cls-3,.cls-4,.cls-5,.cls-6,.cls-8,.cls-9{fill-rule:evenodd;}.cls-2,.cls-7{fill:#34a698;}.cls-3{fill:#fac32a;}.cls-4{fill:#be1f41;}.cls-5{fill:#e25341;}.cls-6{fill:#ba3425;}.cls-8{fill:#47252f;}.cls-9{fill:#c7312a;}.cls-10{fill:#c8030f;}.cls-11,.cls-12{fill:#548a20;}</style></defs><path class="cls-1" d="M781.53,134.29H658.35S670.73,622,675.42,732.45c.67,19.41,106.11,20.42,106.11,0V134.29Z" transform="translate(-14 -8.1)"/><path class="cls-2" d="M668.39,514.88l1,27.11c26.1-3.35,95.39-.67,112.13.33V514.88c-16.74-.67-87.36-3.69-113.14,0Z" transform="translate(-14 -8.1)"/><path class="cls-3" d="M786.88,76.05c.34-15.73,113.48-11.72,112.81,0-1.68,25.1,6,516.48,7.36,660.08,0,6.69-110.46,24.1-125.52-3.68,0,0,2.68-506.11,5.35-656.4Z" transform="translate(-14 -8.1)"/><path class="cls-2" d="M906.05,653.79l.33,25.44c-11,.33-97.07,4.35-124.52,0l.34-25.44c27.11,4.35,111.8.67,123.85,0Z" transform="translate(-14 -8.1)"/><path class="cls-4" d="M879.27,25.84A219,219,0,0,1,931.15,8.1s181.42,532.55,252.72,715.65c2.68,6.69-55.23,26.1-62.59,22.42-10.71-5.69-242-720.33-242-720.33Z" transform="translate(-14 -8.1)"/><path class="cls-5" d="M991.74,184.17c-3.68-11.39,61.59-43.18,79.33-43.18,0,0,228.62,442.5,294.89,567,2,4.35-77.65,50.55-84,40.17-16.07-26.44-290.21-564-290.21-564Z" transform="translate(-14 -8.1)"/><path class="cls-2" d="M675.42,732.45c0,28.45-233.3,18.41-233.3,0V43.24c95.39-5.69,122.17-7.36,212.55,1.34,0,0,20.75,509.46,20.75,687.87Z" transform="translate(-14 -8.1)"/><path class="cls-2" d="M1134,262.83c-13.73,4.35-65.28,31.46-80.34,42.51L1043,284.58c17.41-13.72,64.94-38.82,80-43.51Z" transform="translate(-14 -8.1)"/><path class="cls-6" d="M1273.24,562.41c-9.7,3-45.85,21.42-56.23,28.78l-85.36-165.35c12-9.37,45.19-26.45,55.23-29.46,2.35,5,81.34,156.65,86.36,166Z" transform="translate(-14 -8.1)"/><path class="cls-3" d="M1126.3,568.43c-10,.67-50.55,14.39-61.59,20.76-1.34.66-8.7-22.1-7.7-22.43,13-8.7,50.21-20.42,61.25-21.09,1,0,8,22.76,8,22.76Z" transform="translate(-14 -8.1)"/><path class="cls-1" d="M994.42,192.53c-9.38.34-44.86,12.39-54.9,18.41l-7.7-22.76c11.72-8.37,44.86-18.41,54.9-18.74Z" transform="translate(-14 -8.1)"/><path class="cls-1" d="M979.69,149.69c-10-1.68-44.52,11-53.89,19.41l-13.73-42.17c10.38-11.38,42.51-20.76,53.22-18.75Z" transform="translate(-14 -8.1)"/><rect class="cls-7" x="803.01" y="232.63" width="53.89" height="55.9"/><polygon class="cls-3" points="767.53 357.82 650.38 358.16 649.71 326.69 767.53 326.36 767.53 357.82"/><path class="cls-8" d="M14,731.44l159.66,18.41,76.66-569.37L96.68,161.07C89,188.52,14,731.44,14,731.44Z" transform="translate(-14 -8.1)"/><path class="cls-9" d="M83.29,251.11c18.74-5.35,142.26,13.05,154,25.11l-2.67,20.08c-1.68-6.36-118.16-30.8-155-24.44Z" transform="translate(-14 -8.1)"/><path class="cls-9" d="M77.93,290.94c18.75-5,142.26,13.39,154,25.44l-2.68,20.09c-1.67-6.36-118.49-30.8-155-24.44Z" transform="translate(-14 -8.1)"/><path class="cls-9" d="M70.9,331.78c19.08-5,142.26,13.39,154,25.1L222.2,377.3c-1.34-6.36-118.16-30.79-155-24.43Z" transform="translate(-14 -8.1)"/><path class="cls-1" d="M1153.08,642.41l-4.69-13.73c-27.78,7-48.87,15.74-62.59,23.1l4.68,13.72a277.61,277.61,0,0,1,62.6-23.09Z" transform="translate(-14 -8.1)"/><path class="cls-3" d="M1080.44,439.56l-5.69-16.06c-25.44,6.35-45.86,14.72-58.58,21.42l5.36,16.06a296,296,0,0,1,58.91-21.42Z" transform="translate(-14 -8.1)"/><path class="cls-5" d="M900.36,204.58c-18.75-3-84-2.67-115.15-.33-1,0,0-23.77,0-23.77,29.79-4.35,94.39-2.67,114.81.34,0,0,1,21.76.34,23.76Z" transform="translate(-14 -8.1)"/><path class="cls-3" d="M673.08,578.81c-34.14,5.35-186.78,5.35-231,.33v46.2C494,633,637.6,631.7,674.08,626Z" transform="translate(-14 -8.1)"/><path class="cls-1" d="M442.12,533.29V553c11,8,224.6,2.68,230.29-.66V532.28c-5.69,3.68-219.25,8.7-230.29,1Z" transform="translate(-14 -8.1)"/><path class="cls-1" d="M660.36,193.2c-31.47-5-177.41-4.68-218.24.34V147.35c48.53-7.7,182.42-6.36,216.56-.67Z" transform="translate(-14 -8.1)"/><path class="cls-3" d="M442.12,243.41l.67-23.76c14.72-4.69,213.55-3.69,218.57,0L661,243.41c-5.36-3.35-204.19-4.35-218.91,0Z" transform="translate(-14 -8.1)"/><path class="cls-10" d="M250.65,105.5c0,89.38,8.37,480,14.4,627,.66,18.07,178.07,17.74,177.07,0-3.35-61.93,0-481.34,0-635,0-12.72-191.47-14.39-191.47,8Z" transform="translate(-14 -8.1)"/><path class="cls-3" d="M261.36,618.31c.34,13.05.67,26.11,1,38.16,36.82-2.68,147.61-4,178.41-.34V617.64c-31.8-4-144.27-2.35-179.42.67Z" transform="translate(-14 -8.1)"/><path class="cls-3" d="M253.33,279.9c.67,39.83,1.67,83,2.68,126.86h.67c36.15-4.35,155-4.35,184.1,0h.33c0-43.85.34-88,.34-129.54,0,0-.34-.67-.67-.67-30.13-8.37-140.92-9.71-184.1,2.68a11.66,11.66,0,0,0-3.35.67Z" transform="translate(-14 -8.1)"/><path class="cls-11" d="M441.45,277.22c-29.12-5.36-139.58-2-188.12,2.68l-1-44.19c41.5-13.05,157.32-8,189.45-3Z" transform="translate(-14 -8.1)"/><rect class="cls-12" x="279.5" y="308.95" width="112.13" height="35.48"/></svg>