<svg id="Слой_1" data-name="Слой 1" xmlns="http://www.w3.org/2000/svg" xmlns:xlink="http://www.w3.org/1999/xlink" viewBox="0 0 337.07 205.25"><defs><style>.cls-1{fill:url(#Безымянный_градиент_16);}.cls-2{fill:url(#Безымянный_градиент_16-2);}</style><linearGradient id="Безымянный_градиент_16" x1="3242.68" y1="545.64" x2="3463.79" y2="417.99" gradientTransform="translate(4038.78 869.11) rotate(179.91)" gradientUnits="userSpaceOnUse"><stop offset="0" stop-color="#fa812e"/><stop offset="0.5" stop-color="#cb1f71"/><stop offset="1" stop-color="#943a94"/></linearGradient><linearGradient id="Безымянный_градиент_16-2" x1="3224.59" y1="645.26" x2="3481.26" y2="497.07" xlink:href="#Безымянный_градиент_16"/></defs><path class="cls-1" d="M555,372.91a16.55,16.55,0,0,1,9,2.61l119.27,75.85,119-76.21a16.69,16.69,0,1,1,18,28.11l-128,82a16.71,16.71,0,0,1-18,0L546.05,403.68a16.69,16.69,0,0,1,9-30.77Z" transform="translate(-514.47 -282.6)"/><path class="cls-2" d="M531.15,283.06a16.55,16.55,0,0,1,9,2.61l143,90.95,142.73-91.38a16.69,16.69,0,1,1,18,28.1l-151.7,97.13a16.69,16.69,0,0,1-18,0l-152-96.66a16.69,16.69,0,0,1,8.95-30.77Z" transform="translate(-514.47 -282.6)"/></svg>